HIERARCHY
ROOT SpineBase
{
  OFFSET 0.000000 0.000000 0.000000
  CHANNELS 6 Xposition Yposition Zposition Zrotation Xrotation Yrotation
  JOINT SpineMid
  {
    OFFSET 0.000000 31.811297 0.000000
    CHANNELS 3 Zrotation Xrotation Yrotation
    JOINT SpineShoulder
    {
      OFFSET -0.221537 23.595431 -1.114061
      CHANNELS 3 Zrotation Xrotation Yrotation
      JOINT Neck
      {
        OFFSET -0.140590 7.856071 -0.768482
        CHANNELS 3 Zrotation Xrotation Yrotation
        JOINT Head
        {
          OFFSET -2.848958 10.069670 4.355066
          CHANNELS 3 Zrotation Xrotation Yrotation
          End Site
          {
            OFFSET 0 0 0
          }
        }
      }
      JOINT ShoulderLeft
      {
        OFFSET -12.496130 -8.686144 -17.045471
        CHANNELS 3 Zrotation Xrotation Yrotation
        JOINT ElbowLeft
        {
          OFFSET 5.998744 -24.490763 -2.451757
          CHANNELS 3 Zrotation Xrotation Yrotation
          JOINT WristLeft
          {
            OFFSET -13.117756 -21.463621 0.744924
            CHANNELS 3 Zrotation Xrotation Yrotation
            JOINT HandLeft
            {
              OFFSET 4.410247 -2.822366 6.491111
              CHANNELS 3 Zrotation Xrotation Yrotation
              JOINT HandTipLeft
              {
                OFFSET -1.650758 -5.755104 0.973496
                CHANNELS 3 Zrotation Xrotation Yrotation
                End Site
                {
                  OFFSET 0 0 0
                }
              }
              JOINT ThumbLeft
              {
                OFFSET -1.308484 -1.427787 -1.713500
                CHANNELS 3 Zrotation Xrotation Yrotation
                End Site
                {
                  OFFSET 0 0 0
                }
              }
            }
          }
        }
      }
      JOINT ShoulderRight
      {
        OFFSET 0.523313 -4.704547 -12.877401
        CHANNELS 3 Zrotation Xrotation Yrotation
        JOINT ElbowRight
        {
          OFFSET -6.235077 -23.678867 -5.449446
          CHANNELS 3 Zrotation Xrotation Yrotation
          JOINT WristRight
          {
            OFFSET -6.869477 -24.480038 4.755705
            CHANNELS 3 Zrotation Xrotation Yrotation
            JOINT HandRight
            {
              OFFSET -1.627238 -5.201540 1.964026
              CHANNELS 3 Zrotation Xrotation Yrotation
              JOINT HandTipRight
              {
                OFFSET -0.274831 -6.582712 0.156136
                CHANNELS 3 Zrotation Xrotation Yrotation
                End Site
                {
                  OFFSET 0 0 0
                }
              }
              JOINT ThumbRight
              {
                OFFSET 3.017632 0.314430 0.390376
                CHANNELS 3 Zrotation Xrotation Yrotation
                End Site
                {
                  OFFSET 0 0 0
                }
              }
            }
          }
        }
      }
    }
  }
  JOINT HipLeft
  {
    OFFSET -4.368686 0.180903 -0.673874
    CHANNELS 3 Zrotation Xrotation Yrotation
    JOINT KneeLeft
    {
      OFFSET 17.041391 -26.915239 4.950614
      CHANNELS 3 Zrotation Xrotation Yrotation
      JOINT AnkleLeft
      {
        OFFSET 6.375884 -31.464989 4.295897
        CHANNELS 3 Zrotation Xrotation Yrotation
        JOINT FootLeft
        {
          OFFSET -2.071958 -4.446233 -6.665366
          CHANNELS 3 Zrotation Xrotation Yrotation
          End Site
          {
            OFFSET 0 0 0
          }
        }
      }
    }
  }
  JOINT HipRight
  {
    OFFSET 4.590059 2.349323 -6.300778
    CHANNELS 3 Zrotation Xrotation Yrotation
    JOINT KneeRight
    {
      OFFSET -1.761216 -28.216169 -1.915834
      CHANNELS 3 Zrotation Xrotation Yrotation
      JOINT AnkleRight
      {
        OFFSET 7.973747 -32.587817 0.267235
        CHANNELS 3 Zrotation Xrotation Yrotation
        JOINT FootRight
        {
          OFFSET -3.092491 -5.695973 -2.077482
          CHANNELS 3 Zrotation Xrotation Yrotation
          End Site
          {
            OFFSET 0 0 0
          }
        }
      }
    }
  }
}
MOTION
Frames: 13
Frame Time: 0.033333
-1.190484 64.906332 312.574742 -0.000000 0.000000 32.132544 -0.000000 0.000000 -32.132544 -0.000000 0.000000 0.000000 -0.000000 0.000000 0.000000 0.000000 0.000000 0.000000 -0.000000 0.000000 0.000000 -0.000000 0.000000 0.000000 -0.000000 0.000000 0.000000 -0.000000 0.000000 0.000000 0.000000 0.000000 0.000000 0.000000 0.000000 0.000000 -0.000000 0.000000 0.000000 -0.000000 0.000000 0.000000 -0.000000 0.000000 0.000000 -0.000000 0.000000 0.000000 0.000000 0.000000 0.000000 0.000000 0.000000 0.000000 -0.000000 0.000000 -32.132544 -0.000000 0.000000 0.000000 -0.000000 0.000000 0.000000 0.000000 0.000000 0.000000 -0.000000 0.000000 -32.132544 -0.000000 0.000000 0.000000 -0.000000 0.000000 0.000000 0.000000 0.000000 0.000000
-1.058412 64.894427 312.597002 0.201763 -0.039099 32.662817 -0.148755 0.141806 -32.662564 -0.000000 0.000000 0.000000 -0.000000 0.000000 0.000000 0.000000 0.000000 0.000000 -0.000000 0.000000 0.000000 -0.000000 0.000000 0.000000 -0.395363 -0.084049 -1.044758 2.668819 2.060131 0.837717 0.000000 0.000000 0.000000 0.000000 0.000000 0.000000 -0.000000 0.000000 0.000000 -0.000000 0.000000 0.000000 -0.272381 1.165259 -0.466067 1.210694 -3.309875 0.619490 0.000000 0.000000 0.000000 0.000000 0.000000 0.000000 -0.148755 0.141806 -32.662564 -0.000000 0.000000 0.000000 2.365462 5.756336 -5.953129 0.000000 0.000000 0.000000 -0.148755 0.141806 -32.662564 -0.000000 0.000000 0.000000 1.987403 -0.081961 -0.685642 0.000000 0.000000 0.000000
-0.946817 64.881177 312.622669 0.365570 -0.082867 33.120896 -0.260895 0.269151 -33.120019 -0.000000 0.000000 0.000000 -0.000000 0.000000 0.000000 0.000000 0.000000 0.000000 -0.000000 0.000000 0.000000 -0.000000 0.000000 0.000000 -0.738149 -0.066670 -1.818003 5.372584 4.254749 1.285905 0.000000 0.000000 0.000000 0.000000 0.000000 0.000000 -0.000000 0.000000 0.000000 -0.000000 0.000000 0.000000 -0.457179 2.095690 -0.824598 2.046042 -5.949567 1.148803 0.000000 0.000000 0.000000 0.000000 0.000000 0.000000 -0.472568 -0.663538 -33.625787 -1.027606 2.097693 0.678907 5.130784 8.378401 -10.430449 0.000000 0.000000 0.000000 -0.260895 0.269151 -33.120019 -0.000000 0.000000 0.000000 3.534513 -0.048382 -1.283429 0.000000 0.000000 0.000000
-0.855699 64.866582 312.651744 0.491429 -0.131294 33.508194 -0.337282 0.380765 -33.506510 -0.000000 0.000000 0.000000 -0.000000 0.000000 0.000000 0.000000 0.000000 0.000000 -0.000000 0.000000 0.000000 -0.000000 0.000000 0.000000 -1.027171 0.047565 -2.322115 7.882521 6.339645 1.380396 0.000000 0.000000 0.000000 0.000000 0.000000 0.000000 -0.000000 0.000000 0.000000 -0.000000 0.000000 0.000000 -0.554199 2.769422 -1.070531 2.489953 -7.940518 1.534255 0.000000 0.000000 0.000000 0.000000 0.000000 0.000000 -0.617542 -0.897237 -34.190549 -1.414403 2.845303 0.930407 6.881278 10.198187 -13.334461 0.000000 0.000000 0.000000 -0.337282 0.380765 -33.506510 -0.000000 0.000000 0.000000 4.658081 0.110083 -1.803153 0.000000 0.000000 0.000000
-0.785059 64.850644 312.684226 0.579360 -0.184369 33.825916 -0.378674 0.475667 -33.823412 -0.000000 0.000000 0.000000 -0.743747 0.037296 0.333028 0.000000 0.000000 0.000000 -0.000000 0.000000 0.000000 -0.000000 0.000000 0.000000 -1.262736 0.254950 -2.559826 9.844267 7.955859 1.220054 0.000000 0.000000 0.000000 0.000000 0.000000 0.000000 -0.000000 0.000000 0.000000 -0.000000 0.000000 0.000000 -0.564323 3.172066 -1.200712 2.527062 -9.301707 1.739395 0.000000 0.000000 0.000000 0.000000 0.000000 0.000000 -0.697347 -1.068144 -34.635507 -1.713040 3.396818 1.117384 7.889667 10.828650 -14.827007 0.000000 0.000000 0.000000 -0.378674 0.475667 -33.823412 -0.000000 0.000000 0.000000 5.369675 0.402618 -2.251535 0.000000 0.000000 0.000000
-0.734896 64.833361 312.720115 0.629396 -0.242082 34.075035 -0.385717 0.553143 -34.071844 -0.000000 0.000000 0.000000 -0.884587 0.032498 0.392839 0.000000 0.000000 0.000000 -0.000000 0.000000 0.000000 -0.000000 0.000000 0.000000 -1.446424 0.552694 -2.533843 10.867303 8.722744 0.945703 0.000000 0.000000 0.000000 0.000000 0.000000 0.000000 -0.000000 0.000000 0.000000 -0.000000 0.000000 0.000000 -0.489244 3.297071 -1.213910 2.146392 -10.047201 1.746046 0.000000 0.000000 0.000000 0.000000 0.000000 0.000000 -0.709647 -1.177550 -34.961506 -1.921527 3.754610 1.236697 8.128020 10.409822 -14.978844 0.000000 0.000000 0.000000 -0.385717 0.553143 -34.071844 -0.000000 0.000000 0.000000 5.674007 0.839143 -2.631673 0.000000 0.000000 0.000000
-0.674927 64.793648 312.753338 0.672791 -0.300362 34.312936 -0.386413 0.627337 -34.309057 -0.000000 0.000000 0.000000 -1.046940 0.015074 0.458366 0.000000 0.000000 0.000000 -0.693582 0.537242 0.204486 0.691691 -0.539675 -0.197977 -1.501475 1.188380 -1.654013 10.673157 9.274385 -0.361206 0.000000 0.000000 0.000000 0.000000 0.000000 0.000000 -0.000000 0.000000 0.000000 -0.000000 0.000000 0.000000 -0.699717 3.567458 -1.372261 2.001833 -10.602230 1.888413 0.000000 0.000000 0.000000 0.000000 0.000000 0.000000 -0.740889 -1.414067 -35.339918 -2.170710 4.306702 1.444065 7.349888 7.042357 -12.845519 0.000000 0.000000 0.000000 -0.386413 0.627337 -34.309057 -0.000000 0.000000 0.000000 5.677907 2.138059 -3.407128 0.000000 0.000000 0.000000
-0.659532 64.759785 312.793896 0.645342 -0.368656 34.441190 -0.323748 0.668998 -34.437224 -0.000000 0.000000 0.000000 -1.153717 -0.037037 0.489601 0.000000 0.000000 0.000000 -0.000000 0.000000 0.000000 -0.000000 0.000000 0.000000 -1.547393 1.380924 -1.453319 10.114372 8.005044 -0.200848 0.000000 0.000000 0.000000 0.000000 0.000000 0.000000 -0.000000 0.000000 0.000000 -0.000000 0.000000 0.000000 -0.251113 2.482303 -0.872579 0.257750 -9.339723 1.164129 0.000000 0.000000 0.000000 0.000000 0.000000 0.000000 -0.612672 -1.428166 -35.455064 -2.187681 4.336867 1.444117 5.123593 2.456574 -8.171956 0.000000 0.000000 0.000000 -0.323748 0.668998 -34.437224 -0.000000 0.000000 0.000000 5.182752 4.802498 -4.759440 0.000000 0.000000 0.000000
-0.707909 64.745195 312.853637 0.529350 -0.453327 34.377699 -0.180941 0.673033 -34.374542 -0.000000 0.000000 0.000000 -1.218961 -0.098190 0.500075 0.000000 0.000000 0.000000 -0.000000 0.000000 0.000000 -0.000000 0.000000 0.000000 -1.496181 1.273828 -1.503044 7.784248 3.934997 1.024522 0.000000 0.000000 0.000000 0.000000 0.000000 0.000000 -0.000000 0.000000 0.000000 -0.000000 0.000000 0.000000 0.238642 1.561368 -0.403969 -1.977347 -7.783472 0.471699 0.000000 0.000000 0.000000 0.000000 0.000000 0.000000 -0.256160 -0.896689 -35.065692 -1.733444 3.166201 0.992788 4.767687 2.637846 -7.864784 0.000000 0.000000 0.000000 -0.180941 0.673033 -34.374542 -0.000000 0.000000 0.000000 3.817893 4.698005 -4.112907 0.000000 0.000000 0.000000
-0.734075 64.755865 312.894368 0.452673 -0.518062 34.374438 -0.081139 0.683163 -34.371908 -0.000000 0.000000 0.000000 -1.212990 -0.131138 0.487839 0.000000 0.000000 0.000000 -0.000000 0.000000 0.000000 -0.000000 0.000000 0.000000 -0.973908 1.135068 -0.473635 5.140931 3.970156 -0.366993 0.000000 0.000000 0.000000 0.000000 0.000000 0.000000 -0.000000 0.000000 0.000000 -0.000000 0.000000 0.000000 0.841875 0.576925 0.133723 -2.188241 -6.023124 -0.023663 0.000000 0.000000 0.000000 0.000000 0.000000 0.000000 -0.001613 -0.623653 -34.875630 -1.499113 2.492906 0.739177 2.591797 -1.264604 -3.150463 0.000000 0.000000 0.000000 -0.081139 0.683163 -34.371908 -0.000000 0.000000 0.000000 2.155331 3.165775 -2.564904 0.000000 0.000000 0.000000
-0.807818 64.784190 312.959703 0.324311 -0.604447 34.359065 0.073407 0.682013 -34.357792 -0.000000 0.000000 0.000000 -1.176968 -0.151440 0.466266 0.000000 0.000000 0.000000 -0.000000 0.000000 0.000000 -0.000000 0.000000 0.000000 -0.696620 1.646363 1.024187 2.308449 -0.201412 -1.131571 0.000000 0.000000 0.000000 0.000000 0.000000 0.000000 -0.000000 0.000000 0.000000 -0.000000 0.000000 0.000000 1.168961 -0.309037 0.542404 -3.578887 -3.549196 -0.497943 0.000000 0.000000 0.000000 0.000000 0.000000 0.000000 0.320593 -0.540050 -34.741716 -1.503539 2.174621 0.592282 -0.096735 -6.033257 3.180863 0.000000 0.000000 0.000000 0.073407 0.682013 -34.357792 -0.000000 0.000000 0.000000 1.074289 -1.131017 0.234888 0.000000 0.000000 0.000000
-0.917500 64.823446 313.041249 0.158307 -0.702344 34.279412 0.264779 0.669509 -34.279989 -0.000000 0.000000 0.000000 -1.159318 -0.241688 0.432219 0.000000 0.000000 0.000000 -0.000000 0.000000 0.000000 -0.000000 0.000000 0.000000 -1.072681 2.489553 1.546840 2.285418 -1.405686 -1.575022 0.000000 0.000000 0.000000 0.000000 0.000000 0.000000 -0.000000 0.000000 0.000000 -0.000000 0.000000 0.000000 1.434499 -0.741477 0.784065 -3.890808 -3.751927 -0.697118 0.000000 0.000000 0.000000 0.000000 0.000000 0.000000 0.634505 -1.251292 -34.890001 -2.279918 3.314873 0.946118 -0.883465 -10.307414 6.676113 0.000000 0.000000 0.000000 0.264779 0.669509 -34.279989 -0.000000 0.000000 0.000000 0.658322 -5.232628 2.685529 0.000000 0.000000 0.000000
-0.957206 64.847953 313.099534 0.104680 -0.760651 34.291946 0.342088 0.687408 -34.293304 -0.718404 0.374940 -0.061241 -0.432267 -0.721051 0.456788 0.000000 0.000000 0.000000 0.718820 -0.374143 0.065939 -0.000000 0.000000 0.000000 -0.868146 2.786763 2.552534 4.201653 -1.361549 -2.273037 0.000000 0.000000 0.000000 0.000000 0.000000 0.000000 0.718820 -0.374143 0.065939 -0.000000 0.000000 0.000000 1.422148 -0.099662 0.571451 -3.305368 -3.527780 -0.516019 0.000000 0.000000 0.000000 0.000000 0.000000 0.000000 0.746110 -1.611146 -35.040015 -2.743757 3.997277 1.163416 0.692219 -3.121883 0.550639 0.000000 0.000000 0.000000 0.342088 0.687408 -34.293304 -0.000000 0.000000 0.000000 1.239114 -7.422515 3.774060 0.000000 0.000000 0.000000
